<svg width="49" height="48" viewBox="0 0 49 48" fill="none" xmlns="http://www.w3.org/2000/svg">
<path d="M41.25 8H8.25C7.65326 8 7.08097 8.23705 6.65901 8.65901C6.23705 9.08097 6 9.65326 6 10.25V38.75C6 39.3467 6.23705 39.919 6.65901 40.341C7.08097 40.7629 7.65326 41 8.25 41H41.25C41.8467 41 42.419 40.7629 42.841 40.341C43.2629 39.919 43.5 39.3467 43.5 38.75V10.25C43.5 9.65326 43.2629 9.08097 42.841 8.65901C42.419 8.23705 41.8467 8 41.25 8ZM8.25 9.5H41.25C41.4489 9.5 41.6397 9.57902 41.7803 9.71967C41.921 9.86032 42 10.0511 42 10.25V12.5H7.5V10.25C7.5 10.0511 7.57902 9.86032 7.71967 9.71967C7.86032 9.57902 8.05109 9.5 8.25 9.5ZM41.25 39.5H8.25C8.05109 39.5 7.86032 39.421 7.71967 39.2803C7.57902 39.1397 7.5 38.9489 7.5 38.75V14H42V38.75C42 38.9489 41.921 39.1397 41.7803 39.2803C41.6397 39.421 41.4489 39.5 41.25 39.5ZM34.5375 22.3573L26.142 18.9987C25.2486 18.6403 24.2514 18.6403 23.358 18.9987L14.9618 22.358C14.6836 22.4694 14.4452 22.6616 14.2773 22.9098C14.1094 23.158 14.0197 23.4507 14.0197 23.7504C14.0197 24.05 14.1094 24.3428 14.2773 24.5909C14.4452 24.8391 14.6836 25.0313 14.9618 25.1427L17.25 26.0578V32.75C17.25 32.8734 17.2804 32.995 17.3387 33.1038C17.3969 33.2127 17.4811 33.3055 17.5837 33.374C19.7043 34.793 22.1984 35.5505 24.75 35.5505C27.3016 35.5505 29.7957 34.793 31.9163 33.374C32.0189 33.3055 32.1031 33.2127 32.1613 33.1038C32.2196 32.995 32.25 32.8734 32.25 32.75V26.0578L34.5382 25.142C34.8164 25.0305 35.0547 24.8382 35.2225 24.59C35.3904 24.3418 35.48 24.049 35.4799 23.7494C35.4799 23.4497 35.39 23.157 35.2221 22.9089C35.0541 22.6608 34.8157 22.4686 34.5375 22.3573ZM30.75 32.3405C28.9482 33.4579 26.8702 34.05 24.75 34.05C22.6298 34.05 20.5518 33.4579 18.75 32.3405V26.6578L23.358 28.5012C24.2514 28.8594 25.2486 28.8594 26.142 28.5012L26.25 28.4585V31.25C26.25 31.4489 26.329 31.6397 26.4697 31.7803C26.6103 31.921 26.8011 32 27 32C27.1989 32 27.3897 31.921 27.5303 31.7803C27.671 31.6397 27.75 31.4489 27.75 31.25V27.8577L30.75 26.6578V32.3405ZM27.3038 26.4207L25.386 23.3525C25.2806 23.1834 25.1123 23.0632 24.9182 23.0181C24.7241 22.9731 24.5201 23.0071 24.351 23.1125C24.1819 23.2179 24.0617 23.3862 24.0166 23.5803C23.9716 23.7744 24.0056 23.9784 24.111 24.1475L25.8855 26.987L25.5855 27.1085C25.0493 27.3238 24.4507 27.3238 23.9145 27.1085L18.2895 24.8585L15.519 23.75L23.9145 20.3915C24.4507 20.1762 25.0493 20.1762 25.5855 20.3915L33.981 23.75L27.3038 26.4207Z" fill="#113255"/>
</svg>
