<svg width="49" height="48" viewBox="0 0 49 48" fill="none" xmlns="http://www.w3.org/2000/svg">
<path d="M41.709 27.5H30.3308C29.8592 27.5008 29.3998 27.6497 29.0175 27.9257C28.6351 28.2017 28.3492 28.5909 28.2 29.0382L25.5 37.145C25.4764 35.1877 24.8646 33.2828 23.7442 31.6778C22.6238 30.0727 21.0464 28.8418 19.2172 28.145C20.7068 27.3699 21.8932 26.1174 22.5863 24.588C23.2795 23.0586 23.4394 21.3409 23.0405 19.7098C22.6415 18.0788 21.7067 16.6288 20.3858 15.592C19.065 14.5553 17.4344 13.9918 15.7552 13.9918C14.0761 13.9918 12.4455 14.5553 11.1247 15.592C9.80378 16.6288 8.86901 18.0788 8.47004 19.7098C8.07106 21.3409 8.23097 23.0586 8.92416 24.588C9.61735 26.1174 10.8037 27.3699 12.2933 28.145C10.4456 28.8468 8.85464 30.0931 7.73087 31.7189C6.6071 33.3448 6.00351 35.2736 6 37.25V41.75C6 41.9489 6.07902 42.1397 6.21967 42.2803C6.36032 42.421 6.55109 42.5 6.75 42.5H38.25C38.4073 42.4999 38.5607 42.4503 38.6883 42.3582C38.8159 42.2661 38.9113 42.1363 38.961 41.987L43.1325 29.4748C43.2078 29.2492 43.2283 29.009 43.1925 28.774C43.1567 28.5389 43.0655 28.3157 42.9264 28.1229C42.7874 27.93 42.6045 27.7729 42.3928 27.6646C42.1811 27.5563 41.9468 27.4999 41.709 27.5ZM15.75 15.5C16.632 15.5002 17.5031 15.6953 18.301 16.0713C19.0989 16.4473 19.8038 16.9949 20.3655 17.675C17.1609 19.5707 13.5273 20.621 9.8055 20.7275C9.9941 19.2835 10.701 17.9573 11.7945 16.9956C12.888 16.034 14.2938 15.5025 15.75 15.5ZM9.79875 22.2275C13.8072 22.121 17.7215 20.989 21.168 18.9395C21.5396 19.7243 21.7362 20.5805 21.7442 21.4488C21.7523 22.3172 21.5716 23.1769 21.2148 23.9685C20.8579 24.7601 20.3332 25.4647 19.6772 26.0336C19.0212 26.6025 18.2494 27.0221 17.4152 27.2633C16.581 27.5046 15.7044 27.5617 14.846 27.4308C13.9876 27.2999 13.1678 26.9841 12.4435 26.5051C11.7191 26.0262 11.1075 25.3957 10.6508 24.6571C10.1942 23.9185 9.90347 23.0895 9.79875 22.2275ZM24 41H7.5V37.25C7.5 35.062 8.36919 32.9635 9.91637 31.4164C11.4635 29.8692 13.562 29 15.75 29C17.938 29 20.0365 29.8692 21.5836 31.4164C23.1308 32.9635 24 35.062 24 37.25V41ZM37.7092 41H25.791L29.616 29.513C29.6658 29.3636 29.7613 29.2336 29.889 29.1416C30.0168 29.0495 30.1703 29 30.3278 29H41.7097L37.7092 41ZM41.25 5H30.75C30.1533 5 29.581 5.23705 29.159 5.65901C28.7371 6.08097 28.5 6.65326 28.5 7.25V19.025L25.626 23.336C25.5512 23.4489 25.5085 23.58 25.5022 23.7153C25.4959 23.8505 25.5264 23.985 25.5904 24.1044C25.6544 24.2237 25.7495 24.3235 25.8656 24.3932C25.9817 24.4628 26.1146 24.4998 26.25 24.5H41.25C41.8467 24.5 42.419 24.2629 42.841 23.841C43.2629 23.419 43.5 22.8467 43.5 22.25V7.25C43.5 6.65326 43.2629 6.08097 42.841 5.65901C42.419 5.23705 41.8467 5 41.25 5ZM42 22.25C42 22.4489 41.921 22.6397 41.7803 22.7803C41.6397 22.921 41.4489 23 41.25 23H27.651L29.874 19.6663C29.9559 19.5429 29.9998 19.3981 30 19.25V7.25C30 7.05109 30.079 6.86032 30.2197 6.71967C30.3603 6.57902 30.5511 6.5 30.75 6.5H41.25C41.4489 6.5 41.6397 6.57902 41.7803 6.71967C41.921 6.86032 42 7.05109 42 7.25V22.25ZM39 10.25C39 10.4489 38.921 10.6397 38.7803 10.7803C38.6397 10.921 38.4489 11 38.25 11H33.75C33.5511 11 33.3603 10.921 33.2197 10.7803C33.079 10.6397 33 10.4489 33 10.25C33 10.0511 33.079 9.86032 33.2197 9.71967C33.3603 9.57902 33.5511 9.5 33.75 9.5H38.25C38.4489 9.5 38.6397 9.57902 38.7803 9.71967C38.921 9.86032 39 10.0511 39 10.25ZM39 14.75C39 14.9489 38.921 15.1397 38.7803 15.2803C38.6397 15.421 38.4489 15.5 38.25 15.5H33.75C33.5511 15.5 33.3603 15.421 33.2197 15.2803C33.079 15.1397 33 14.9489 33 14.75C33 14.5511 33.079 14.3603 33.2197 14.2197C33.3603 14.079 33.5511 14 33.75 14H38.25C38.4489 14 38.6397 14.079 38.7803 14.2197C38.921 14.3603 39 14.5511 39 14.75ZM39 19.25C39 19.4489 38.921 19.6397 38.7803 19.7803C38.6397 19.921 38.4489 20 38.25 20H33.75C33.5511 20 33.3603 19.921 33.2197 19.7803C33.079 19.6397 33 19.4489 33 19.25C33 19.0511 33.079 18.8603 33.2197 18.7197C33.3603 18.579 33.5511 18.5 33.75 18.5H38.25C38.4489 18.5 38.6397 18.579 38.7803 18.7197C38.921 18.8603 39 19.0511 39 19.25Z" fill="#113255"/>
</svg>
