<svg width="49" height="48" viewBox="0 0 49 48" fill="none" xmlns="http://www.w3.org/2000/svg">
<path d="M41.25 5H8.25C7.65326 5 7.08097 5.23705 6.65901 5.65901C6.23705 6.08097 6 6.65326 6 7.25V20C6 20.5967 6.23705 21.169 6.65901 21.591C7.08097 22.0129 7.65326 22.25 8.25 22.25H41.25C41.8467 22.25 42.419 22.0129 42.841 21.591C43.2629 21.169 43.5 20.5967 43.5 20V7.25C43.5 6.65326 43.2629 6.08097 42.841 5.65901C42.419 5.23705 41.8467 5 41.25 5ZM7.5 20V7.25C7.5 7.05109 7.57902 6.86032 7.71967 6.71967C7.86032 6.57902 8.05109 6.5 8.25 6.5H21.75V20.75H8.25C8.05109 20.75 7.86032 20.671 7.71967 20.5303C7.57902 20.3897 7.5 20.1989 7.5 20ZM42 20C42 20.1989 41.921 20.3897 41.7803 20.5303C41.6397 20.671 41.4489 20.75 41.25 20.75H23.25V6.5H41.25C41.4489 6.5 41.6397 6.57902 41.7803 6.71967C41.921 6.86032 42 7.05109 42 7.25V20ZM18.624 10.6663L14.124 17.4163C14.0538 17.5214 13.9582 17.6071 13.846 17.6654C13.7339 17.7238 13.6088 17.7528 13.4824 17.7498C13.356 17.7468 13.2324 17.7119 13.1231 17.6483C13.0138 17.5848 12.9224 17.4946 12.8572 17.3862L10.6073 13.6363C10.5544 13.5518 10.5189 13.4577 10.5028 13.3593C10.4868 13.261 10.4905 13.1605 10.5137 13.0636C10.5369 12.9667 10.5792 12.8754 10.6381 12.795C10.697 12.7147 10.7713 12.6469 10.8567 12.5955C10.9421 12.5442 11.0369 12.5104 11.1355 12.4961C11.2341 12.4819 11.3345 12.4874 11.431 12.5123C11.5274 12.5373 11.618 12.5812 11.6972 12.6416C11.7765 12.7019 11.843 12.7774 11.8928 12.8637L13.533 15.5982L17.376 9.83375C17.4864 9.66825 17.658 9.55339 17.8531 9.51443C18.0482 9.47547 18.2508 9.5156 18.4163 9.626C18.5817 9.7364 18.6966 9.90801 18.7356 10.1031C18.7745 10.2982 18.7344 10.5008 18.624 10.6663ZM39 11C39 11.1989 38.921 11.3897 38.7803 11.5303C38.6397 11.671 38.4489 11.75 38.25 11.75H27C26.8011 11.75 26.6103 11.671 26.4697 11.5303C26.329 11.3897 26.25 11.1989 26.25 11C26.25 10.8011 26.329 10.6103 26.4697 10.4697C26.6103 10.329 26.8011 10.25 27 10.25H38.25C38.4489 10.25 38.6397 10.329 38.7803 10.4697C38.921 10.6103 39 10.8011 39 11ZM34.5 16.25C34.5 16.4489 34.421 16.6397 34.2803 16.7803C34.1397 16.921 33.9489 17 33.75 17H27C26.8011 17 26.6103 16.921 26.4697 16.7803C26.329 16.6397 26.25 16.4489 26.25 16.25C26.25 16.0511 26.329 15.8603 26.4697 15.7197C26.6103 15.579 26.8011 15.5 27 15.5H33.75C33.9489 15.5 34.1397 15.579 34.2803 15.7197C34.421 15.8603 34.5 16.0511 34.5 16.25ZM41.25 25.25H8.25C7.65326 25.25 7.08097 25.4871 6.65901 25.909C6.23705 26.331 6 26.9033 6 27.5V40.25C6 40.8467 6.23705 41.419 6.65901 41.841C7.08097 42.2629 7.65326 42.5 8.25 42.5H41.25C41.8467 42.5 42.419 42.2629 42.841 41.841C43.2629 41.419 43.5 40.8467 43.5 40.25V27.5C43.5 26.9033 43.2629 26.331 42.841 25.909C42.419 25.4871 41.8467 25.25 41.25 25.25ZM7.5 40.25V27.5C7.5 27.3011 7.57902 27.1103 7.71967 26.9697C7.86032 26.829 8.05109 26.75 8.25 26.75H21.75V41H8.25C8.05109 41 7.86032 40.921 7.71967 40.7803C7.57902 40.6397 7.5 40.4489 7.5 40.25ZM42 40.25C42 40.4489 41.921 40.6397 41.7803 40.7803C41.6397 40.921 41.4489 41 41.25 41H23.25V26.75H41.25C41.4489 26.75 41.6397 26.829 41.7803 26.9697C41.921 27.1103 42 27.3011 42 27.5V40.25ZM39 31.25C39 31.4489 38.921 31.6397 38.7803 31.7803C38.6397 31.921 38.4489 32 38.25 32H27C26.8011 32 26.6103 31.921 26.4697 31.7803C26.329 31.6397 26.25 31.4489 26.25 31.25C26.25 31.0511 26.329 30.8603 26.4697 30.7197C26.6103 30.579 26.8011 30.5 27 30.5H38.25C38.4489 30.5 38.6397 30.579 38.7803 30.7197C38.921 30.8603 39 31.0511 39 31.25ZM34.5 36.5C34.5 36.6989 34.421 36.8897 34.2803 37.0303C34.1397 37.171 33.9489 37.25 33.75 37.25H27C26.8011 37.25 26.6103 37.171 26.4697 37.0303C26.329 36.8897 26.25 36.6989 26.25 36.5C26.25 36.3011 26.329 36.1103 26.4697 35.9697C26.6103 35.829 26.8011 35.75 27 35.75H33.75C33.9489 35.75 34.1397 35.829 34.2803 35.9697C34.421 36.1103 34.5 36.3011 34.5 36.5ZM18.5303 36.7197C18.6669 36.8612 18.7425 37.0507 18.7408 37.2473C18.739 37.444 18.6602 37.6321 18.5211 37.7711C18.3821 37.9102 18.1939 37.989 17.9973 37.9908C17.8007 37.9925 17.6112 37.9169 17.4697 37.7803L14.625 34.9355L11.7802 37.7803C11.7111 37.8519 11.6283 37.909 11.5368 37.9483C11.4453 37.9876 11.3469 38.0083 11.2473 38.0092C11.1477 38.0101 11.049 37.9911 10.9568 37.9534C10.8646 37.9157 10.7809 37.86 10.7105 37.7895C10.64 37.7191 10.5843 37.6354 10.5466 37.5432C10.5089 37.451 10.4899 37.3523 10.4908 37.2527C10.4917 37.1531 10.5124 37.0547 10.5517 36.9632C10.591 36.8717 10.6481 36.7889 10.7198 36.7197L13.5645 33.875L10.7198 31.0303C10.6481 30.9611 10.591 30.8783 10.5517 30.7868C10.5124 30.6953 10.4917 30.5969 10.4908 30.4973C10.4899 30.3977 10.5089 30.299 10.5466 30.2068C10.5843 30.1146 10.64 30.0309 10.7105 29.9605C10.7809 29.89 10.8646 29.8343 10.9568 29.7966C11.049 29.7589 11.1477 29.7399 11.2473 29.7408C11.3469 29.7417 11.4453 29.7624 11.5368 29.8017C11.6283 29.841 11.7111 29.8981 11.7802 29.9697L14.625 32.8145L17.4697 29.9697C17.6112 29.8331 17.8007 29.7575 17.9973 29.7592C18.1939 29.761 18.3821 29.8398 18.5211 29.9789C18.6602 30.1179 18.739 30.3061 18.7408 30.5027C18.7425 30.6993 18.6669 30.8888 18.5303 31.0303L15.6855 33.875L18.5303 36.7197Z" fill="#113255"/>
</svg>
